<?xml version="1.0" encoding="utf-8"?>
<!-- Generator: Adobe Illustrator 15.1.0, SVG Export Plug-In . SVG Version: 6.00 Build 0)  -->
<!DOCTYPE svg PUBLIC "-//W3C//DTD SVG 1.1//EN" "http://www.w3.org/Graphics/SVG/1.1/DTD/svg11.dtd">
<svg version="1.1" id="Layer_1" xmlns="http://www.w3.org/2000/svg" xmlns:xlink="http://www.w3.org/1999/xlink" x="0px" y="0px"
	 width="842.833px" height="496.913px" viewBox="0 0 842.833 496.913" enable-background="new 0 0 842.833 496.913"
	 xml:space="preserve">
<g>
	<path d="M295.234,381.531c-8.676,2.991-17.778,5.397-27.303,7.228c-9.529,1.826-17.013,2.741-22.455,2.741
		c-14.29,0-25.095-4.015-32.407-12.044c-7.316-8.028-12.42-22.389-15.311-43.085c-4.426,7.153-9.824,14.513-16.204,22.078
		c-6.379,7.565-13.058,13.675-20.031,18.332c-7.998,5.49-16.076,9.684-24.241,12.597c-8.166,2.908-18.034,4.365-29.6,4.365
		c-14.122,0-27.687-3.08-40.7-9.229c-13.014-6.152-24.54-14.968-34.576-26.443c-10.04-11.471-17.95-25.274-23.731-41.406
		C2.891,300.536,0,282.742,0,263.284c0-17.794,3.062-34.67,9.186-50.635s14.712-30.018,25.772-42.158
		c10.546-11.471,23.093-20.45,37.638-26.938c14.545-6.487,29.64-9.73,45.293-9.73c20.243,0,37.423,4.781,51.545,14.345
		c14.118,9.563,24.497,22.907,31.131,40.032l6.379-47.648h47.462c-1.192,11.81-3.788,29.437-7.783,52.886
		c-4,23.448-8.636,49.062-13.907,76.832c0.51,24.392,3.357,44.756,8.548,61.095c5.187,16.342,11.866,26.836,20.031,31.481
		c2.552,1.495,7.4,2.324,14.544,2.487c7.145,0.168,13.608,0.25,19.393,0.25V381.531z M192.91,255.924
		c-1.192-12.156-3.15-24.477-5.869-36.968c-2.723-12.491-6.806-23.565-12.248-33.222c-5.275-9.824-12.121-17.775-20.542-23.854
		s-18.843-9.119-31.259-9.119c-20.075,0-36.705,10.077-49.886,30.224c-13.185,20.15-19.775,47.878-19.775,83.18
		c0,13.488,1.443,26.271,4.338,38.342c2.891,12.071,6.973,22.522,12.248,31.346c5.614,9.329,12.97,16.864,22.072,22.607
		c9.099,5.747,19.943,8.617,32.535,8.617c20.752,0,36.912-9.115,48.483-27.351C184.573,321.493,191.208,293.558,192.91,255.924z"/>
	<path d="M537.137,187.997c10.718,9.466,18.839,20.883,24.369,34.25c5.526,13.367,8.293,28.105,8.293,44.21
		c0,35.371-11.339,65.183-34.018,89.425c-22.678,24.243-51.517,36.364-86.511,36.364c-14.78,0-27.224-1.744-37.331-5.232
		c-10.111-3.489-18.138-7.31-24.082-11.464h-2.037v121.362h-47.973V136.065c0-24.92,1.914-44.689,5.741-59.311
		c3.828-14.617,12.887-29.32,27.176-44.109c9.354-9.801,21.18-17.694,35.469-23.675C420.524,2.991,436.6,0,454.461,0
		c13.27,0,25.856,1.581,37.766,4.739c11.905,3.162,22.539,8.146,31.896,14.96c9.354,6.651,16.67,15.007,21.945,25.064
		c5.271,10.058,7.91,22.319,7.91,36.781c0,13.301-2.552,24.854-7.655,34.663s-11.315,17.705-18.628,23.69
		c-7.145,6.152-15.227,11.059-24.241,14.715c-9.019,3.656-17.184,5.899-24.496,6.732l1.021,2.243
		c7.822,0.499,17.137,2.784,27.941,6.849C518.721,174.505,528.461,180.357,537.137,187.997z M516.468,267.532
		c0-11.615-0.98-23.312-2.934-35.095c-1.958-11.778-5.319-21.567-10.08-29.367c-5.104-8.13-12.037-14.52-20.796-19.166
		c-8.764-4.646-20.031-6.97-33.811-6.97h-23.986v-23.924h17.352c7.484,0,15.267-1.285,23.349-3.863
		c8.077-2.574,15.011-6.518,20.796-11.837c6.635-5.981,11.822-13.041,15.566-21.183c3.739-8.138,5.613-19.103,5.613-32.895
		c0-20.599-5.096-36.466-15.278-47.598c-10.188-11.128-23.512-16.697-39.979-16.697c-9.848,0-18.548,1.581-26.1,4.735
		c-7.555,3.158-14.557,8.972-21.008,17.444c-5.94,7.811-10.653,18.608-14.134,32.396c-3.48,13.792-5.219,30.072-5.219,48.844
		v211.823c3.564,10.635,10.776,19.937,21.646,27.911c10.864,7.975,23.344,11.962,37.438,11.962c21.729,0,39.089-9.497,52.079-28.495
		S516.468,300.551,516.468,267.532z"/>
	<path d="M754.544,442.337c0,12.623-0.766,22.635-2.297,30.028c-1.531,7.391-3.572,12.834-6.124,16.323s-5.402,5.731-8.548,6.729
		c-3.15,0.997-6.763,1.495-10.846,1.495c-8.676,0-15.271-2.702-19.775-8.099c-4.51-5.401-6.762-13.5-6.762-24.298
		c0-11.631,1.061-24.422,3.189-38.377c2.125-13.956,5.23-28.495,9.313-43.611c-13.102-38.167-25.86-71.233-38.275-99.198
		c-12.42-27.962-27.392-61.359-44.91-100.192c-3.916-8.461-9.358-14.392-16.331-17.795c-6.978-3.403-15.992-5.354-27.049-5.852
		v-16.448l75.786-5.482l3.572,3.489c4.594,11.631,10.802,25.96,18.628,42.988c7.822,17.032,15.904,35.511,24.241,55.448
		c6.463,15.287,13.142,33.145,20.031,53.579s10.929,36.302,12.12,47.598c5.614-14.454,12.416-29.32,20.414-44.607
		c7.994-15.283,13.947-27.412,17.862-36.384c4.25-9.801,7.356-17.775,9.313-23.924c1.954-6.145,2.935-11.794,2.935-16.945
		c0-9.968-1.275-20.186-3.827-30.652c-2.552-10.466-3.828-19.021-3.828-25.668c0-7.309,2.807-13.913,8.421-19.812
		c5.614-5.896,12.843-8.847,21.689-8.847c9.015,0,16.16,2.492,21.435,7.476c5.271,4.984,7.91,12.211,7.91,21.681
		c0,10.466-2.596,21.681-7.782,33.643c-5.191,11.961-11.188,24.507-17.99,37.629c-10.206,19.773-22.16,41.785-35.852,66.039
		c-13.695,24.259-25.134,48.514-34.32,72.768c1.698,14.785,3.4,28.16,5.104,40.122C753.691,425.142,754.544,434.861,754.544,442.337
		z"/>
</g>
</svg>
